<svg xmlns="http://www.w3.org/2000/svg" width="533.000000pt" height="212.000000pt" viewBox="0 0 533.000000 212.000000" preserveAspectRatio="xMidYMid meet"><g transform="translate(0.000000,212.000000) scale(0.100000,-0.100000)" fill="#000000" stroke="none"><path d="M688 1683 c6 -2 18 -2 25 0 6 3 1 5 -13 5 -14 0 -19 -2 -12 -5z"></path><path d="M738 1673 c7 -3 16 -2 19 1 4 3 -2 6 -13 5 -11 0 -14 -3 -6 -6z"></path><path d="M800 1656 c0 -2 7 -7 16 -10 8 -3 12 -2 9 4 -6 10 -25 14 -25 6z"></path><path d="M430 1631 c-96 -31 -163 -72 -231 -141 -286 -291 -168 -780 219 -911 89 -30 241 -33 322 -5 101 34 168 76 239 151 85 90 128 175 148 295 13 76 13 97 0 172 -19 110 -65 204 -137 282 -111 120 -242 176 -407 175 -65 0 -116 -6 -153 -18z m-60 -410 c-1 -188 1 -216 16 -232 16 -18 36 -19 286 -19 l268 0 0 -35 0 -36 -286 3 -286 3 -29 33 -29 32 0 205 0 205 -35 0 c-32 0 -35 2 -35 30 l0 31 66 -3 66 -3 -2 -214z m520 85 c0 -82 -3 -105 -15 -109 -10 -4 -15 -26 -17 -74 l-3 -68 -200 0 -200 0 0 105 0 105 35 5 35 5 3 68 3 67 179 0 180 0 0 -104z m-396 -467 c54 -42 25 -119 -45 -119 -66 0 -92 68 -44 115 30 30 54 31 89 4z m370 0 c54 -42 25 -119 -45 -119 -66 0 -92 68 -44 115 30 30 54 31 89 4z"></path><path d="M607 1343 c-4 -3 -7 -21 -7 -40 l0 -33 109 0 109 0 4 30 c3 16 0 34 -6 40 -11 11 -199 14 -209 3z"></path><path d="M524 1186 c-3 -8 -4 -25 -2 -38 3 -23 5 -23 133 -23 l130 0 0 35 0 35 -128 3 c-104 2 -128 0 -133 -12z"></path><path d="M900 1607 c0 -2 15 -14 33 -27 20 -15 27 -17 18 -6 -13 16 -51 41 -51 33z"></path><path d="M1410 1250 l0 -350 60 0 c60 0 60 0 60 30 l0 30 46 -33 c42 -29 52 -32 122 -32 59 1 87 6 118 22 149 79 180 303 58 420 -24 23 -60 47 -81 52 -83 23 -187 7 -235 -36 -17 -15 -18 -10 -18 115 l0 132 -65 0 -65 0 0 -350z m333 29 c67 -35 96 -99 77 -171 -24 -87 -109 -127 -194 -90 -135 60 -87 272 62 272 18 0 43 -5 55 -11z"></path><path d="M3030 1470 c0 -119 -7 -150 -25 -120 -4 6 -25 20 -47 31 -62 32 -168 24 -234 -16 -101 -63 -138 -215 -81 -338 63 -138 260 -183 364 -85 l23 21 0 -31 0 -32 60 0 60 0 0 350 0 350 -60 0 -60 0 0 -130z m-90 -195 c122 -63 93 -250 -43 -272 -50 -8 -120 27 -141 71 -22 47 -20 114 4 154 34 56 119 78 180 47z"></path><path d="M1000 1525 c19 -19 36 -35 39 -35 3 0 -10 16 -29 35 -19 19 -36 35 -39 35 -3 0 10 -16 29 -35z"></path><path d="M4448 1523 c-27 -4 -28 -6 -28 -69 l0 -64 -45 0 -45 0 0 -50 0 -50 45 0 45 0 0 -132 c0 -109 4 -141 19 -175 33 -72 111 -103 207 -83 l52 11 -18 52 c-11 32 -23 51 -31 49 -35 -9 -71 -3 -89 13 -18 16 -20 31 -20 142 l0 123 70 0 70 0 0 50 0 50 -70 0 -70 0 0 70 0 70 -32 -1 c-18 -1 -45 -4 -60 -6z"></path><path d="M3615 1413 c-19 -23 -23 -24 -60 -14 -120 33 -243 -19 -301 -129 -28 -53 -26 -181 4 -237 38 -73 129 -123 224 -123 45 0 93 -22 108 -49 18 -35 12 -88 -14 -118 -22 -26 -30 -28 -96 -28 -68 0 -73 2 -101 33 -16 18 -29 39 -29 47 0 12 -14 15 -60 15 -56 0 -60 -2 -60 -23 0 -39 43 -110 87 -144 117 -87 314 -56 379 61 47 84 35 185 -29 240 l-34 29 37 37 c64 64 77 181 29 259 -20 33 -20 34 -2 60 11 14 22 31 26 38 6 10 -67 74 -82 72 -4 0 -15 -12 -26 -26z m-78 -133 c68 -41 88 -112 54 -183 -23 -47 -67 -77 -113 -77 -37 0 -90 34 -110 71 -36 68 -12 156 53 191 43 23 76 23 116 -2z"></path><path d="M3950 1390 c-69 -23 -133 -88 -150 -151 -7 -24 -10 -75 -8 -115 4 -90 40 -154 111 -198 39 -24 62 -30 125 -34 89 -5 140 7 200 45 l42 28 -38 38 -38 38 -45 -20 c-52 -24 -129 -27 -169 -6 -28 15 -70 60 -70 76 0 5 88 9 196 9 l197 0 -6 70 c-11 128 -77 209 -189 230 -70 14 -95 12 -158 -10z m170 -108 c34 -17 64 -58 54 -74 -3 -4 -61 -8 -130 -8 -133 0 -143 5 -106 49 42 50 120 65 182 33z"></path><path d="M2040 1250 c0 -164 11 -225 51 -279 63 -88 183 -104 282 -37 l36 25 6 -30 c6 -28 9 -29 61 -29 l54 0 0 245 0 245 -60 0 -60 0 0 -135 c0 -146 -9 -183 -51 -221 -34 -31 -80 -38 -122 -20 -63 26 -72 51 -76 223 l-3 153 -59 0 -59 0 0 -140z"></path><path d="M1161 974 c0 -11 3 -14 6 -6 3 7 2 16 -1 19 -3 4 -6 -2 -5 -13z"></path><path d="M1137 898 c-58 -184 -258 -348 -461 -378 -85 -13 -180 -7 -255 16 -25 7 -47 11 -49 9 -9 -9 110 -36 183 -41 202 -14 411 87 521 253 41 61 88 167 82 185 -2 5 -11 -14 -21 -44z"></path><path d="M150 697 c0 -2 15 -16 33 -33 l32 -29 -29 33 c-28 30 -36 37 -36 29z"></path><path d="M2813 670 c-3 -11 -9 -20 -14 -20 -5 0 -9 -7 -9 -15 0 -8 5 -15 10 -15 6 0 10 -18 10 -39 0 -45 20 -71 56 -71 29 0 32 25 4 33 -15 4 -20 14 -20 41 0 29 4 36 20 36 11 0 20 7 20 15 0 8 -9 15 -20 15 -13 0 -20 7 -20 20 0 12 -7 20 -16 20 -9 0 -18 -9 -21 -20z"></path><path d="M1448 649 c-20 -11 -24 -54 -6 -65 6 -4 24 -10 40 -13 41 -8 35 -26 -10 -27 -55 -1 -59 -3 -38 -19 42 -31 116 -12 116 30 0 27 -10 36 -54 45 -37 7 -33 25 6 25 33 0 47 13 28 25 -20 13 -61 12 -82 -1z"></path><path d="M1949 641 c-17 -13 -23 -29 -23 -56 0 -27 6 -43 23 -56 24 -20 76 -25 100 -10 22 14 3 31 -29 24 -19 -3 -36 0 -47 8 -14 12 -9 15 43 19 56 5 59 6 56 30 -7 54 -77 78 -123 41z m81 -26 c11 -13 6 -15 -31 -15 -41 1 -43 2 -25 15 25 19 40 19 56 0z"></path><path d="M2258 653 c-27 -4 -28 -6 -28 -74 0 -55 3 -69 15 -69 11 0 15 12 15 44 0 46 19 72 45 62 11 -4 15 -20 15 -56 0 -43 3 -50 19 -50 17 0 20 8 23 53 3 44 6 52 23 52 17 0 20 -8 23 -52 3 -45 6 -53 23 -53 16 0 19 7 19 53 0 40 -5 58 -18 70 -21 19 -63 22 -78 7 -8 -8 -15 -6 -24 5 -12 15 -20 16 -72 8z"></path><path d="M2500 640 c-26 -26 -27 -83 -1 -109 16 -16 33 -20 80 -19 l61 1 0 67 0 67 -46 7 c-67 9 -72 8 -94 -14z m90 -40 c16 -31 -4 -62 -38 -58 -28 3 -40 32 -28 64 8 21 54 17 66 -6z"></path><path d="M1572 594 c6 -70 21 -83 94 -82 l54 1 0 68 c0 62 -2 69 -20 69 -17 0 -20 -7 -20 -44 0 -86 -62 -89 -68 -2 -3 39 -6 46 -24 46 -19 0 -20 -5 -16 -56z"></path><path d="M1750 548 c0 -91 1 -98 20 -98 16 0 20 7 20 33 0 31 2 33 33 29 67 -8 107 68 62 118 -14 16 -29 19 -76 18 l-59 -2 0 -98z m110 57 c14 -17 5 -51 -16 -59 -24 -9 -54 12 -54 39 0 34 47 48 70 20z"></path><path d="M2100 579 c0 -62 2 -69 19 -69 17 0 20 8 23 53 3 48 5 52 28 52 24 0 40 11 40 27 0 5 -25 7 -55 7 l-55 -2 0 -68z"></path><path d="M2660 579 c0 -62 2 -69 20 -69 17 0 20 7 20 43 0 53 11 70 41 65 16 -2 25 2 27 14 3 15 -5 17 -52 17 l-56 -1 0 -69z"></path><path d="M229 626 c13 -16 51 -41 51 -33 0 2 -15 14 -32 27 -21 15 -28 17 -19 6z"></path><path d="M290 585 c0 -7 61 -37 66 -33 2 3 -12 12 -31 21 -19 9 -35 15 -35 12z"></path></g></svg>