<svg xmlns="http://www.w3.org/2000/svg" width="547.000000pt" height="118.000000pt" viewBox="0 0 547.000000 118.000000" preserveAspectRatio="xMidYMid meet"><g transform="translate(0.000000,118.000000) scale(0.100000,-0.100000)" fill="#000000" stroke="none"><path d="M423 818 c-145 -145 -266 -271 -269 -281 -8 -26 14 -47 48 -47 16 0 38 -5 49 -10 18 -10 19 -23 19 -174 l0 -164 47 -7 c57 -8 289 -8 303 0 6 3 10 46 10 94 0 54 4 91 12 99 16 16 110 16 126 0 7 -7 12 -42 12 -86 0 -55 3 -73 13 -69 32 12 237 67 272 72 79 13 74 5 77 123 l3 107 45 5 c117 14 110 26 -198 333 -164 163 -275 267 -287 267 -12 0 -122 -102 -282 -262z"></path><path d="M937 1074 c-4 -4 -7 -40 -7 -81 0 -73 0 -73 48 -127 31 -36 54 -54 67 -53 19 2 20 9 20 132 l0 130 -60 3 c-34 2 -64 0 -68 -4z"></path></g></svg>