<svg xmlns="http://www.w3.org/2000/svg" width="570.000000pt" height="145.000000pt" viewBox="0 0 570.000000 145.000000" preserveAspectRatio="xMidYMid meet"><g transform="translate(0.000000,145.000000) scale(0.100000,-0.100000)" fill="#000000" stroke="none"><path d="M580 1434 c-238 -51 -435 -214 -524 -434 -172 -424 78 -891 526 -984 69 -14 304 -16 2268 -16 2390 0 2259 -3 2403 55 80 33 184 104 244 168 394 416 181 1095 -379 1211 -69 14 -302 16 -2275 15 -1839 0 -2209 -3 -2263 -15z m202 -261 c32 -9 55 -20 52 -24 -3 -5 2 -6 10 -3 9 3 19 -3 26 -16 7 -14 17 -20 28 -16 14 5 14 4 -1 -8 -14 -11 -15 -15 -5 -19 7 -2 1 -2 -13 0 -22 3 -27 0 -31 -21 -4 -19 -1 -26 11 -27 12 -1 11 -3 -3 -6 -15 -4 -16 -7 -5 -14 12 -7 12 -9 -1 -9 -13 0 -13 -1 0 -10 10 -6 11 -10 3 -10 -8 0 -13 -13 -13 -31 0 -23 -4 -30 -14 -26 -9 4 -16 -3 -21 -20 -4 -16 -11 -23 -20 -19 -9 3 -12 0 -8 -10 3 -7 0 -14 -6 -14 -19 0 -12 -32 9 -37 11 -3 20 -9 20 -14 0 -5 -9 -9 -20 -9 -17 0 -20 -7 -20 -40 0 -33 -3 -40 -20 -40 -13 0 -20 -7 -20 -20 0 -13 -7 -20 -20 -20 -15 0 -20 -7 -20 -25 0 -19 4 -23 17 -18 11 4 14 3 9 -5 -4 -7 -1 -12 9 -12 9 0 13 -5 9 -11 -4 -8 -9 -8 -17 0 -6 6 -18 11 -26 11 -11 0 -11 -3 4 -13 21 -16 12 -39 -13 -31 -16 5 -16 5 0 -9 10 -8 15 -17 11 -20 -3 -4 -1 -7 5 -7 7 0 18 15 26 34 8 18 19 37 25 40 6 4 9 10 7 14 -7 12 86 14 114 2 53 -22 74 -93 45 -150 -26 -51 -79 -64 -164 -41 -23 7 -49 10 -57 7 -8 -3 -23 5 -35 17 -17 17 -19 18 -12 4 15 -28 4 -67 -18 -67 -15 0 -19 -7 -19 -40 0 -33 -3 -40 -20 -40 -11 0 -20 -4 -20 -10 0 -5 10 -10 21 -10 18 0 20 -2 8 -16 -10 -13 -10 -17 2 -25 10 -8 8 -9 -9 -4 -12 4 -37 8 -55 10 -54 5 -157 63 -217 124 -174 173 -180 455 -15 639 124 137 302 187 487 135z m143 -103 c-3 -5 -14 -10 -23 -9 -14 0 -13 2 3 9 27 11 27 11 20 0z m-45 -90 c0 -5 -5 -10 -11 -10 -5 0 -7 5 -4 10 3 6 8 10 11 10 2 0 4 -4 4 -10z m1601 -50 c38 -21 12 -79 -31 -65 -22 7 -27 44 -8 63 15 15 15 15 39 2z m507 -5 c79 -34 115 -90 116 -183 0 -53 -5 -68 -30 -104 -41 -59 -84 -81 -153 -81 -93 0 -156 49 -181 141 -40 151 106 286 248 227z m-1506 -92 l3 -96 85 96 c47 55 92 97 102 97 10 0 18 -3 18 -7 -1 -5 -34 -44 -75 -88 l-73 -79 61 -69 c34 -38 72 -82 85 -98 22 -27 22 -29 4 -29 -11 0 -45 29 -82 73 -35 39 -69 78 -76 86 -12 13 -16 12 -34 -4 -16 -15 -20 -30 -20 -87 0 -54 -3 -68 -15 -68 -13 0 -15 27 -15 185 0 156 2 185 15 185 11 0 15 -20 17 -97z m438 -73 l0 -170 90 0 c73 0 90 -3 90 -15 0 -12 -18 -15 -105 -15 l-105 0 0 185 c0 158 2 185 15 185 13 0 15 -26 15 -170z m272 28 c1 -79 2 -155 1 -170 l-1 -28 94 0 c77 0 94 -3 94 -15 0 -12 -19 -15 -110 -15 l-110 0 0 185 c0 158 2 185 15 185 13 0 15 -23 17 -142z m1340 -20 l3 -163 88 -3 c79 -3 87 -5 87 -22 0 -19 -7 -20 -115 -20 l-115 0 0 185 0 185 25 0 25 0 2 -162z m285 118 c-4 -9 -16 -16 -27 -16 -29 0 -38 30 -15 47 16 11 21 11 33 -1 8 -8 12 -22 9 -30z m-2008 20 c9 -10 8 -16 -4 -26 -19 -16 -41 1 -32 24 8 20 21 20 36 2z m831 -41 c0 -31 3 -35 25 -35 20 0 25 -5 25 -25 0 -20 -5 -25 -25 -25 -25 0 -25 -1 -25 -86 0 -86 0 -86 24 -82 19 4 26 0 30 -16 7 -28 -7 -40 -49 -40 -58 0 -69 21 -73 129 -4 86 -6 95 -23 95 -14 0 -19 7 -19 25 0 18 5 25 20 25 16 0 20 7 20 35 0 33 2 35 35 35 33 0 35 -2 35 -35z m744 -56 c17 -15 20 -36 24 -134 l4 -115 -25 0 -26 0 -3 107 c-3 107 -3 108 -31 121 -24 12 -33 11 -65 -5 l-37 -18 -3 -102 c-2 -95 -4 -103 -22 -103 -19 0 -20 7 -20 135 0 128 1 135 20 135 11 0 20 -7 20 -15 0 -19 -2 -19 45 5 45 23 88 19 119 -11z m721 1 c17 -18 20 -36 23 -135 l4 -115 -26 0 -25 0 -3 107 c-3 104 -4 108 -29 122 -23 13 -30 12 -65 -5 l-39 -19 -3 -102 c-2 -95 -4 -103 -22 -103 -19 0 -20 7 -20 135 0 128 1 135 20 135 11 0 20 -7 20 -15 0 -19 -2 -19 45 5 46 24 89 20 120 -10z m281 11 c43 -20 74 -67 74 -115 l0 -26 -111 0 c-110 0 -110 0 -103 -22 17 -59 75 -81 139 -54 26 11 42 13 49 6 15 -15 -12 -37 -64 -51 -40 -11 -51 -10 -92 9 -108 47 -111 204 -5 253 52 23 62 23 113 0z m-2576 -126 c0 -113 -2 -135 -15 -135 -13 0 -15 22 -15 135 0 113 2 135 15 135 13 0 15 -22 15 -135z m680 0 l0 -135 -30 0 -30 0 0 135 0 135 30 0 30 0 0 -135z m1320 0 c0 -128 -1 -135 -20 -135 -19 0 -20 7 -20 135 0 128 1 135 20 135 19 0 20 -7 20 -135z m998 81 c13 -12 14 -18 4 -28 -9 -9 -15 -9 -24 0 -19 19 -82 15 -101 -6 -26 -28 -31 -75 -13 -110 20 -38 56 -50 102 -33 39 14 61 7 44 -14 -22 -26 -77 -38 -116 -25 -94 31 -101 192 -10 231 29 12 96 4 114 -15z m254 -15 c58 -65 41 -158 -36 -195 -36 -17 -43 -18 -79 -5 -54 19 -80 56 -80 114 0 111 124 166 195 86z m239 20 c24 -19 25 -19 48 0 28 23 70 25 97 5 16 -12 19 -29 22 -120 4 -102 3 -106 -17 -106 -20 0 -21 5 -21 84 0 106 -4 116 -44 116 -49 0 -56 -14 -56 -112 0 -81 -2 -88 -20 -88 -18 0 -20 7 -20 84 0 101 -5 116 -37 116 -56 0 -63 -13 -63 -110 0 -83 -1 -90 -20 -90 -19 0 -20 7 -20 115 0 108 1 115 20 115 11 0 20 -5 20 -10 0 -6 12 -4 28 4 36 20 55 20 83 -3z m-733 -197 c2 -12 -4 -24 -12 -27 -19 -7 -40 18 -32 39 8 22 40 13 44 -12z"></path><path d="M806 964 c-17 -12 -17 -14 -4 -14 9 0 20 5 23 11 11 17 2 18 -19 3z"></path><path d="M750 919 c0 -5 5 -7 10 -4 6 3 10 8 10 11 0 2 -4 4 -10 4 -5 0 -10 -5 -10 -11z"></path><path d="M759 591 c-20 -25 -23 -53 -9 -86 7 -17 9 -16 9 10 1 35 7 45 40 67 18 13 30 14 49 7 34 -13 39 -4 10 15 -34 22 -76 16 -99 -13z"></path><path d="M2848 874 c-48 -26 -74 -98 -59 -165 9 -38 54 -99 74 -99 11 0 -1 40 -19 60 -7 9 -11 26 -7 38 5 21 7 22 23 7 14 -13 22 -14 43 -4 24 11 25 15 20 60 -5 41 -3 50 12 55 27 11 50 -9 53 -47 2 -20 13 -43 28 -57 13 -13 24 -28 25 -35 1 -7 5 4 10 23 16 64 -12 140 -61 165 -37 19 -107 19 -142 -1z"></path><path d="M4268 770 c-45 -46 -34 -55 63 -55 78 0 84 1 81 20 -5 30 -49 65 -83 65 -21 0 -40 -10 -61 -30z"></path><path d="M4926 738 c-24 -39 -27 -65 -12 -102 37 -88 161 -38 142 57 -9 46 -33 67 -77 67 -29 0 -42 -6 -53 -22z"></path></g></svg>