<svg xmlns="http://www.w3.org/2000/svg" width="1800.000000pt" height="1200.000000pt" viewBox="0 0 1800.000000 1200.000000" preserveAspectRatio="xMidYMid meet"><g transform="translate(0.000000,1200.000000) scale(0.100000,-0.100000)" fill="#000000" stroke="none"><path d="M7604 7929 c-454 -40 -861 -268 -1092 -612 -160 -236 -235 -491 -235 -797 0 -180 19 -305 68 -456 69 -210 166 -367 329 -530 161 -161 329 -266 549 -343 481 -168 1144 -80 1580 209 l77 51 0 555 0 554 -290 0 -290 0 0 -400 0 -400 -37 -18 c-255 -128 -637 -130 -888 -5 -222 111 -387 328 -440 578 -27 126 -23 324 9 449 79 306 295 522 604 603 83 22 120 26 252 27 130 0 169 -3 244 -22 155 -39 285 -109 421 -227 l60 -53 195 181 c107 100 196 186 198 192 2 7 -33 46 -76 87 -298 285 -745 421 -1238 377z"></path><path d="M12138 7930 c-500 -53 -918 -311 -1143 -705 -206 -362 -238 -833 -84 -1232 169 -434 562 -754 1051 -853 290 -60 635 -40 895 51 213 74 389 184 549 343 203 202 318 416 381 707 26 122 25 439 -1 564 -110 526 -488 924 -1016 1072 -181 50 -444 72 -632 53z m403 -559 c299 -77 517 -297 602 -606 19 -68 22 -105 21 -250 0 -156 -3 -178 -28 -259 -47 -154 -107 -258 -211 -362 -104 -105 -190 -159 -323 -204 -290 -97 -606 -43 -840 143 -350 278 -412 871 -129 1242 123 162 304 269 520 311 97 18 288 11 388 -15z"></path><path d="M14300 6520 l0 -1370 310 0 310 0 2 831 3 831 680 -829 680 -828 263 -3 262 -2 0 1370 0 1370 -315 0 -315 0 -2 -827 -3 -827 -675 824 -676 825 -262 3 -262 2 0 -1370z"></path><path d="M2933 7503 c9 -2 23 -2 30 0 6 3 -1 5 -18 5 -16 0 -22 -2 -12 -5z"></path><path d="M2845 7490 c-7 -12 2 -12 30 0 19 8 19 9 -2 9 -12 1 -25 -3 -28 -9z"></path><path d="M2793 7473 c9 -2 23 -2 30 0 6 3 -1 5 -18 5 -16 0 -22 -2 -12 -5z"></path><path d="M2725 7460 c-8 -13 15 -13 35 0 12 8 11 10 -7 10 -12 0 -25 -4 -28 -10z"></path><path d="M3790 7460 c0 -5 5 -10 11 -10 5 0 7 5 4 10 -3 6 -8 10 -11 10 -2 0 -4 -4 -4 -10z"></path><path d="M3970 7458 c-1 -37 -12 -244 -15 -273 -5 -49 -17 -256 -16 -270 1 -5 7 -10 13 -10 9 0 14 24 16 75 1 41 9 162 17 269 8 107 12 198 9 203 -5 7 -24 12 -24 6z"></path><path d="M3858 7443 c6 -2 18 -2 25 0 6 3 1 5 -13 5 -14 0 -19 -2 -12 -5z"></path><path d="M3050 7419 c-124 -12 -230 -37 -294 -68 -70 -34 -258 -187 -287 -234 -44 -70 -117 -236 -128 -292 -7 -33 -17 -79 -22 -102 -10 -47 -12 -223 -3 -247 14 -36 19 -10 15 81 -5 146 25 275 101 433 40 81 73 136 97 158 79 73 178 150 226 174 71 37 232 67 411 78 150 10 158 9 255 -15 148 -38 341 -139 437 -229 46 -44 58 -37 15 10 -33 35 -199 148 -232 159 -13 4 -53 23 -89 41 -36 19 -73 34 -83 34 -10 0 -44 7 -76 15 -61 16 -212 18 -343 4z"></path><path d="M2595 7410 c-13 -6 -15 -9 -5 -9 8 0 22 4 30 9 18 12 2 12 -25 0z"></path><path d="M2546 7393 c-42 -11 -185 -114 -251 -182 -94 -96 -72 -91 29 7 47 45 116 99 164 127 45 26 82 49 82 51 0 2 -1 3 -2 3 -2 -1 -12 -4 -22 -6z"></path><path d="M2197 7103 c-11 -13 -17 -26 -14 -29 2 -3 12 7 21 22 23 33 17 39 -7 7z"></path><path d="M2148 7043 c-27 -32 -31 -49 -4 -19 14 16 26 31 26 33 0 7 -8 2 -22 -14z"></path><path d="M3105 7015 c-17 -14 -82 -64 -145 -111 -63 -48 -117 -89 -119 -91 -2 -1 -2 -5 0 -8 4 -3 148 99 199 142 8 7 37 31 63 53 27 22 44 40 40 40 -5 0 -22 -11 -38 -25z"></path><path d="M3266 6928 c17 -13 39 -31 49 -41 9 -10 20 -15 23 -12 3 3 3 6 1 8 -2 2 -23 18 -45 35 -23 18 -45 32 -50 32 -4 0 6 -10 22 -22z"></path><path d="M2026 6808 c-23 -53 -19 -71 5 -25 11 21 18 44 16 50 -3 7 -12 -5 -21 -25z"></path><path d="M2983 6793 c-21 -16 -256 -191 -521 -390 -434 -326 -485 -361 -516 -359 -42 2 -56 13 -30 22 27 10 69 44 55 44 -7 0 -31 -13 -54 -29 -23 -15 -53 -32 -67 -37 -23 -7 -21 -9 20 -15 118 -19 72 -47 637 377 283 212 520 383 526 381 7 -3 119 -87 249 -188 130 -101 350 -271 488 -377 l251 -193 225 7 c123 4 224 10 224 13 0 13 -57 28 -77 20 -11 -4 -101 -9 -201 -10 l-181 -3 -40 32 c-22 18 -42 32 -45 32 -2 0 -18 12 -34 28 -16 15 -47 40 -68 55 -38 27 -208 160 -250 195 -11 9 -39 30 -62 46 -23 16 -42 33 -42 37 0 5 -5 9 -11 9 -13 0 -181 128 -192 147 -4 7 -13 13 -19 13 -6 0 -28 15 -49 33 -44 36 -88 71 -140 110 l-36 27 -40 -27z"></path><path d="M2743 6739 c-35 -27 -63 -52 -63 -55 0 -12 139 86 140 99 0 15 -16 5 -77 -44z"></path><path d="M3459 6770 c14 -12 36 -19 55 -18 l31 1 -32 4 c-17 2 -37 11 -43 19 -7 8 -18 14 -24 14 -6 -1 0 -10 13 -20z"></path><path d="M3558 6753 c7 -3 16 -2 19 1 4 3 -2 6 -13 5 -11 0 -14 -3 -6 -6z"></path><path d="M3610 6751 c0 -7 29 -11 82 -11 100 0 97 9 -6 17 -52 3 -76 1 -76 -6z"></path><path d="M3792 6744 c9 -8 188 -10 188 -2 0 5 -43 8 -97 8 -53 0 -94 -3 -91 -6z"></path><path d="M4000 6740 c0 -5 9 -10 20 -10 11 0 20 5 20 10 0 6 -9 10 -20 10 -11 0 -20 -4 -20 -10z"></path><path d="M4150 6741 c-129 -12 -180 -96 -180 -298 0 -101 16 -84 23 26 10 135 25 179 71 213 30 21 50 28 87 28 57 0 79 7 79 26 0 8 -3 13 -7 12 -5 0 -37 -4 -73 -7z"></path><path d="M2002 6720 c0 -14 2 -19 5 -12 2 6 2 18 0 25 -3 6 -5 1 -5 -13z"></path><path d="M1997 6673 c-10 -18 -17 -83 -9 -83 5 0 12 19 15 42 6 42 4 57 -6 41z"></path><path d="M2610 6637 c-30 -23 -60 -46 -67 -52 -7 -5 -32 -26 -57 -45 -25 -19 -43 -36 -41 -38 2 -2 47 29 101 70 124 93 128 97 123 102 -2 3 -29 -14 -59 -37z"></path><path d="M9347 6493 c-4 -3 -7 -114 -7 -245 l0 -238 555 0 555 0 0 245 0 245 -548 0 c-302 0 -552 -3 -555 -7z"></path><path d="M2390 6465 c-19 -21 -21 -25 -7 -25 9 0 17 7 17 15 0 7 8 19 18 24 9 6 12 11 6 11 -6 0 -21 -11 -34 -25z"></path><path d="M1970 6420 c-5 -63 1 -235 8 -242 6 -6 5 161 -2 242 l-3 35 -3 -35z"></path><path d="M2735 6414 c-39 -20 -74 -53 -91 -86 -28 -53 -22 -58 71 -58 l85 0 0 80 c0 89 -6 95 -65 64z"></path><path d="M2830 6350 l0 -80 100 0 c114 0 117 3 69 69 -19 28 -48 51 -82 67 -84 39 -87 37 -87 -56z"></path><path d="M4014 6341 c11 -11 23 -21 28 -21 14 0 -1 19 -25 31 -22 12 -22 12 -3 -10z"></path><path d="M4070 6302 c0 -5 10 -14 23 -20 12 -7 33 -19 47 -29 l25 -16 -25 24 c-32 30 -70 52 -70 41z"></path><path d="M2622 6143 l3 -98 85 0 85 0 0 95 0 95 -88 3 -88 3 3 -98z"></path><path d="M2834 6227 c-2 -8 -4 -52 -2 -98 l3 -84 100 0 100 0 0 95 0 95 -98 3 c-75 2 -99 0 -103 -11z"></path><path d="M4177 6229 c7 -7 15 -10 18 -7 3 3 -2 9 -12 12 -14 6 -15 5 -6 -5z"></path><path d="M2140 6050 c-84 -71 -158 -137 -163 -146 -6 -11 4 -38 39 -97 144 -249 335 -400 654 -517 180 -66 221 -70 662 -70 438 0 510 6 613 55 122 58 116 39 122 357 l6 274 -187 132 c-103 73 -192 132 -197 132 -5 0 -10 -158 -11 -371 l-3 -372 -28 -21 c-27 -20 -40 -21 -280 -21 -293 0 -316 5 -517 102 -93 46 -129 70 -189 127 -138 133 -233 282 -291 455 -28 84 -40 106 -55 108 -13 1 -78 -47 -175 -127z"></path><path d="M4274 6161 c11 -11 23 -21 28 -21 14 0 -1 19 -25 31 -22 12 -22 12 -3 -10z"></path><path d="M1991 6134 c0 -11 3 -14 6 -6 3 7 2 16 -1 19 -3 4 -6 -2 -5 -13z"></path><path d="M4334 6121 c11 -11 23 -21 28 -21 14 0 -1 19 -25 31 -22 12 -22 12 -3 -10z"></path><path d="M2793 4823 c9 -2 23 -2 30 0 6 3 -1 5 -18 5 -16 0 -22 -2 -12 -5z"></path><path d="M4019 4814 c-17 -21 -26 -161 -11 -176 8 -8 9 5 5 43 -5 50 2 77 35 142 7 14 -16 7 -29 -9z"></path><path d="M2635 4803 c-38 -7 -96 -19 -128 -25 -38 -7 -54 -14 -45 -19 11 -7 10 -9 -1 -9 -8 0 -64 -25 -125 -55 -133 -65 -249 -149 -254 -184 -3 -21 -1 -20 28 13 40 45 147 112 270 169 113 53 173 73 300 103 106 25 70 31 -45 7z"></path><path d="M3875 4791 c-64 -23 -127 -55 -295 -150 -141 -80 -208 -112 -300 -142 -36 -12 -43 -16 -20 -13 92 15 234 77 375 164 114 70 262 140 294 140 17 0 31 5 31 10 0 14 -27 11 -85 -9z"></path><path d="M3150 4786 c0 -9 5 -16 10 -16 6 0 10 4 10 9 0 6 -4 13 -10 16 -5 3 -10 -1 -10 -9z"></path><path d="M2370 4750 c-8 -5 -25 -10 -37 -10 -24 0 -78 -18 -72 -24 5 -5 149 30 157 38 9 10 -32 6 -48 -4z"></path><path d="M4405 4741 c-69 -25 -82 -32 -227 -128 -71 -46 -128 -88 -128 -93 0 -6 0 -13 -1 -17 -1 -10 -95 -32 -138 -33 -20 0 -31 -4 -25 -9 5 -4 48 -3 96 2 81 9 87 12 83 31 -4 18 17 36 132 113 161 108 188 121 282 129 39 4 71 11 71 15 0 16 -93 9 -145 -10z"></path><path d="M2998 4720 c-4 -24 -2 -27 9 -19 8 7 13 8 13 1 0 -15 -28 -34 -40 -27 -5 3 -13 0 -16 -8 -3 -8 -15 -18 -27 -22 -12 -4 -24 -8 -27 -9 -3 -1 -25 -13 -50 -26 -63 -34 -128 -58 -255 -94 -60 -17 -102 -32 -94 -34 9 -2 49 6 90 18 41 11 99 25 129 31 30 6 66 17 80 24 14 7 66 33 115 58 124 62 151 97 97 126 -17 9 -20 7 -24 -19z"></path><path d="M3880 4730 c-11 -11 -20 -26 -20 -32 0 -7 6 -4 12 7 6 11 19 25 27 32 9 7 13 13 9 13 -5 0 -17 -9 -28 -20z"></path><path d="M2630 4716 c-134 -48 -259 -116 -309 -170 -36 -38 -16 -45 22 -8 46 45 186 126 270 157 105 40 114 44 97 44 -8 0 -44 -10 -80 -23z"></path><path d="M2160 4689 c0 -5 5 -7 10 -4 6 3 10 8 10 11 0 2 -4 4 -10 4 -5 0 -10 -5 -10 -11z"></path><path d="M2025 4647 c-67 -39 -95 -58 -95 -67 0 -5 24 7 52 26 29 19 58 34 65 34 6 0 15 5 18 10 8 13 -15 12 -40 -3z"></path><path d="M3843 4625 c0 -22 2 -30 4 -17 2 12 2 30 0 40 -3 9 -5 -1 -4 -23z"></path><path d="M7726 4549 c-15 -12 -26 -30 -26 -44 0 -28 43 -65 76 -65 57 0 87 83 42 114 -31 22 -60 20 -92 -5z"></path><path d="M9736 4549 c-15 -12 -26 -30 -26 -44 0 -28 43 -65 76 -65 57 0 87 83 42 114 -31 22 -60 20 -92 -5z"></path><path d="M15826 4549 c-15 -12 -26 -30 -26 -44 0 -28 43 -65 76 -65 57 0 87 83 42 114 -31 22 -60 20 -92 -5z"></path><path d="M1920 4542 c0 -5 7 -16 16 -23 14 -12 16 -11 13 5 -4 20 -29 35 -29 18z"></path><path d="M2910 4541 l45 -7 -65 -8 c-36 -4 -73 -15 -82 -23 -15 -13 -20 -13 -33 -3 -9 7 -18 10 -22 6 -8 -7 26 -35 44 -36 7 0 16 6 20 14 5 10 41 18 107 25 54 6 103 14 108 17 22 14 -20 24 -92 22 -65 -1 -69 -2 -30 -7z m87 -7 c-3 -3 -12 -4 -19 -1 -8 3 -5 6 6 6 11 1 17 -2 13 -5z"></path><path d="M11325 4509 c-89 -27 -119 -111 -70 -194 l24 -43 -38 -25 c-50 -33 -75 -86 -68 -144 13 -118 180 -169 321 -99 l51 25 27 -26 c27 -26 28 -26 49 -7 40 36 43 53 15 83 l-26 27 20 52 c11 29 20 56 20 61 0 5 -19 13 -42 19 -45 12 -58 5 -58 -30 0 -32 -21 -29 -63 8 -23 21 -43 40 -44 43 -2 3 13 16 32 28 95 62 80 194 -24 223 -43 12 -85 12 -126 -1z m108 -90 c15 -25 1 -62 -32 -82 -29 -17 -30 -17 -50 9 -25 32 -26 51 -4 76 20 23 71 21 86 -3z m32 -324 c-3 -17 -78 -37 -113 -30 -74 14 -94 76 -41 126 l32 30 62 -58 c34 -32 62 -62 60 -68z"></path><path d="M12127 4506 c-68 -19 -126 -64 -161 -127 -27 -48 -31 -63 -31 -134 0 -71 3 -86 31 -135 38 -67 103 -114 181 -130 94 -20 211 7 257 59 20 22 20 22 -16 58 l-36 36 -32 -26 c-39 -33 -68 -41 -125 -35 -56 7 -103 41 -126 92 -51 113 12 241 126 254 57 6 86 -2 125 -35 l32 -26 36 36 c35 35 35 37 18 56 -51 56 -186 84 -279 57z"></path><path d="M6180 4245 l0 -265 200 0 200 0 0 45 0 45 -140 0 -140 0 0 65 0 65 120 0 120 0 0 45 0 45 -120 0 -120 0 0 65 0 65 135 0 135 0 0 45 0 45 -195 0 -195 0 0 -265z"></path><path d="M1993 4485 c27 -15 137 -39 145 -31 2 2 -25 11 -60 19 -35 9 -74 19 -88 22 -24 6 -24 5 3 -10z"></path><path d="M2458 4473 c6 -2 18 -2 25 0 6 3 1 5 -13 5 -14 0 -19 -2 -12 -5z"></path><path d="M3188 4473 c6 -2 18 -2 25 0 6 3 1 5 -13 5 -14 0 -19 -2 -12 -5z"></path><path d="M13900 4425 c0 -43 -1 -45 -30 -45 -29 0 -30 -2 -30 -45 0 -43 1 -45 29 -45 l29 0 4 -120 3 -120 32 -32 c29 -29 40 -33 100 -36 46 -2 74 1 86 10 16 12 17 16 3 48 -13 31 -18 34 -49 32 -54 -5 -69 24 -65 129 l3 84 48 3 47 3 0 45 0 44 -50 0 -50 0 0 45 0 45 -55 0 -55 0 0 -45z"></path><path d="M15510 4425 c0 -43 -1 -45 -30 -45 -29 0 -30 -2 -30 -45 0 -43 1 -45 29 -45 l29 0 4 -120 3 -120 32 -32 c29 -29 40 -33 100 -36 46 -2 74 1 86 10 16 12 17 16 3 48 -13 31 -18 34 -49 32 -54 -5 -69 24 -65 129 l3 84 48 3 47 3 0 45 0 44 -50 0 -50 0 0 45 0 45 -55 0 -55 0 0 -45z"></path><path d="M6680 4180 l0 -200 55 0 55 0 0 126 c0 125 0 126 29 155 35 35 86 39 122 10 23 -18 24 -26 27 -155 l4 -136 54 0 54 0 0 143 c0 161 -10 195 -69 234 -45 30 -130 31 -186 3 -22 -11 -41 -20 -42 -20 -2 0 -3 9 -3 20 0 17 -7 20 -50 20 l-50 0 0 -200z"></path><path d="M7275 4364 c-45 -25 -76 -55 -91 -91 -17 -39 -18 -121 -3 -160 14 -38 57 -83 96 -99 49 -21 142 -18 181 6 l32 20 0 -30 c0 -16 -10 -41 -24 -57 -23 -26 -29 -28 -98 -28 -49 1 -83 6 -105 18 l-31 17 -21 -36 c-17 -28 -19 -39 -10 -50 31 -38 199 -57 281 -32 55 16 103 73 117 137 6 29 11 131 11 226 l0 175 -55 0 c-52 0 -55 -1 -55 -25 l0 -26 -30 23 c-41 30 -150 36 -195 12z m184 -100 c27 -22 31 -32 31 -74 0 -42 -4 -52 -31 -74 -69 -59 -180 -11 -179 76 2 85 111 129 179 72z"></path><path d="M7720 4180 l0 -200 55 0 55 0 0 200 0 200 -55 0 -55 0 0 -200z"></path><path d="M7940 4180 l0 -200 55 0 55 0 0 126 c0 125 0 126 29 155 35 35 86 39 122 10 23 -18 24 -26 27 -155 l4 -136 54 0 54 0 0 143 c0 161 -10 195 -69 234 -45 30 -130 31 -186 3 -22 -11 -41 -20 -42 -20 -2 0 -3 9 -3 20 0 17 -7 20 -50 20 l-50 0 0 -200z"></path><path d="M8550 4367 c-81 -38 -120 -98 -120 -185 0 -62 13 -98 48 -136 64 -68 195 -88 282 -43 24 12 46 27 47 33 2 7 -7 24 -20 40 -24 28 -24 28 -60 11 -40 -20 -98 -22 -130 -6 -23 12 -56 48 -57 62 0 4 67 7 149 7 169 0 164 -3 149 79 -10 57 -50 108 -102 132 -47 21 -146 24 -186 6z m129 -78 c18 -6 38 -24 47 -40 l15 -29 -101 0 c-55 0 -100 3 -100 6 0 16 24 45 48 58 33 18 50 19 91 5z"></path><path d="M9030 4367 c-81 -38 -120 -98 -120 -185 0 -62 13 -98 48 -136 64 -68 195 -88 282 -43 24 12 46 27 47 33 2 7 -7 24 -20 40 -24 28 -24 28 -60 11 -40 -20 -98 -22 -130 -6 -23 12 -56 48 -57 62 0 4 67 7 149 7 169 0 164 -3 149 79 -10 57 -50 108 -102 132 -47 21 -146 24 -186 6z m129 -78 c18 -6 38 -24 47 -40 l15 -29 -101 0 c-55 0 -100 3 -100 6 0 16 24 45 48 58 33 18 50 19 91 5z"></path><path d="M9410 4180 l0 -200 55 0 55 0 0 110 c0 60 5 120 11 134 13 27 64 56 98 56 19 0 21 6 21 51 l0 52 -41 -6 c-23 -3 -51 -15 -63 -26 -29 -27 -36 -26 -36 4 0 23 -3 25 -50 25 l-50 0 0 -200z"></path><path d="M9730 4180 l0 -200 55 0 55 0 0 200 0 200 -55 0 -55 0 0 -200z"></path><path d="M9950 4180 l0 -200 55 0 55 0 0 126 c0 125 0 126 29 155 35 35 86 39 122 10 23 -18 24 -26 27 -155 l4 -136 54 0 54 0 0 143 c0 161 -10 195 -69 234 -45 30 -130 31 -186 3 -22 -11 -41 -20 -42 -20 -2 0 -3 9 -3 20 0 17 -7 20 -50 20 l-50 0 0 -200z"></path><path d="M10545 4364 c-45 -25 -76 -55 -91 -91 -17 -39 -18 -121 -3 -160 14 -38 57 -83 96 -99 49 -21 142 -18 181 6 l32 20 0 -30 c0 -16 -10 -41 -24 -57 -23 -26 -29 -28 -98 -28 -49 1 -83 6 -105 18 l-31 17 -21 -36 c-17 -28 -19 -39 -10 -50 31 -38 199 -57 281 -32 55 16 103 73 117 137 6 29 11 131 11 226 l0 175 -55 0 c-52 0 -55 -1 -55 -25 l0 -26 -30 23 c-41 30 -150 36 -195 12z m184 -100 c27 -22 31 -32 31 -74 0 -42 -4 -52 -31 -74 -69 -59 -180 -11 -179 76 2 85 111 129 179 72z"></path><path d="M12575 4361 c-77 -36 -115 -95 -115 -181 0 -86 38 -145 115 -181 84 -39 206 -17 267 47 35 38 48 74 48 134 0 60 -13 96 -48 134 -40 43 -98 66 -167 66 -37 0 -75 -7 -100 -19z m167 -100 c29 -26 33 -35 33 -81 0 -46 -4 -55 -33 -81 -46 -42 -93 -40 -138 5 -28 28 -34 42 -34 76 0 34 6 48 34 76 45 45 92 47 138 5z"></path><path d="M12980 4180 l0 -200 55 0 55 0 0 126 c0 125 0 126 29 155 35 35 86 39 122 10 23 -18 24 -26 27 -155 l4 -136 54 0 54 0 0 143 c0 161 -10 195 -69 234 -45 30 -130 31 -186 3 -22 -11 -41 -20 -42 -20 -2 0 -3 9 -3 20 0 17 -7 20 -50 20 l-50 0 0 -200z"></path><path d="M13551 4366 c-52 -19 -81 -59 -81 -112 0 -73 34 -95 181 -119 21 -3 43 -13 50 -21 11 -14 10 -19 -11 -36 -21 -17 -34 -19 -78 -14 -29 4 -68 13 -86 20 -33 14 -33 13 -50 -20 -9 -19 -16 -39 -16 -44 0 -20 112 -42 190 -38 89 5 132 26 156 76 13 29 14 41 5 73 -14 47 -42 63 -142 84 -85 18 -103 29 -89 56 18 32 93 34 174 3 13 -5 50 62 41 76 -18 29 -180 39 -244 16z"></path><path d="M14220 4180 l0 -200 55 0 55 0 0 110 c0 60 5 120 11 134 13 27 64 56 98 56 19 0 21 6 21 51 l0 52 -41 -6 c-23 -3 -51 -15 -63 -26 -29 -27 -36 -26 -36 4 0 23 -3 25 -50 25 l-50 0 0 -200z"></path><path d="M14530 4258 c0 -173 19 -226 92 -264 40 -21 122 -18 168 6 l40 20 0 -20 c0 -18 6 -20 55 -20 l55 0 0 200 0 200 -60 0 -60 0 0 -126 c0 -125 0 -126 -29 -155 -39 -39 -91 -40 -120 -3 -19 24 -21 40 -21 155 l0 129 -60 0 -60 0 0 -122z"></path><path d="M15135 4361 c-77 -36 -115 -95 -115 -181 0 -60 13 -96 48 -134 83 -88 267 -88 330 1 l21 30 -47 22 c-39 19 -48 21 -57 8 -56 -76 -185 -25 -185 73 0 34 6 48 34 76 43 43 90 46 136 8 l31 -27 35 19 c46 25 49 30 29 60 -39 60 -177 84 -260 45z"></path><path d="M15820 4180 l0 -200 55 0 55 0 0 200 0 200 -55 0 -55 0 0 -200z"></path><path d="M16135 4361 c-77 -36 -115 -95 -115 -181 0 -86 38 -145 115 -181 84 -39 206 -17 267 47 35 38 48 74 48 134 0 60 -13 96 -48 134 -40 43 -98 66 -167 66 -37 0 -75 -7 -100 -19z m167 -100 c29 -26 33 -35 33 -81 0 -46 -4 -55 -33 -81 -46 -42 -93 -40 -138 5 -28 28 -34 42 -34 76 0 34 6 48 34 76 45 45 92 47 138 5z"></path><path d="M16540 4180 l0 -200 55 0 55 0 0 126 c0 125 0 126 29 155 35 35 86 39 122 10 23 -18 24 -26 27 -155 l4 -136 54 0 54 0 0 143 c0 161 -10 195 -69 234 -45 30 -130 31 -186 3 -22 -11 -41 -20 -42 -20 -2 0 -3 9 -3 20 0 17 -7 20 -50 20 l-50 0 0 -200z"></path></g></svg>