<svg id="Layer_1" xmlns="http://www.w3.org/2000/svg" version="1.1" viewBox="0 0 688.08 264.1">
  
  <defs>
    <style>
      .st0 {
        fill: #fafafb;
      }

      .st1 {
        fill: #2a7afe;
      }

      .st2 {
        fill: #fefeff;
      }

      .st3 {
        fill: #fff;
      }

      .st4 {
        fill: #001436;
      }

      .st5 {
        fill: #fcfcfc;
      }

      .st6 {
        fill: #fbfcff;
      }
    </style>
  </defs>
  <path class="st4" d="M42.63.05c1.06,0,2.13-.01,3.23-.02,3.56-.01,7.11,0,10.67.01,2.58,0,5.16-.01,7.74-.02,5.6-.01,11.21-.01,16.81,0,8.33.02,16.66,0,24.99,0,14.88-.02,29.76-.02,44.64,0,13.02.01,26.05.01,39.07,0,.86,0,1.73,0,2.62,0,3.51,0,7.02,0,10.52,0,32.9-.01,65.8,0,98.7.02,29.22.02,58.45.02,87.67,0C422.14,0,454.98,0,487.82.01c3.5,0,7,0,10.5,0,.86,0,1.72,0,2.61,0,13.01,0,26.03,0,39.04-.01,14.8-.01,29.6,0,44.4.01,8.28.01,16.56.01,24.84,0,6.18-.01,12.37,0,18.55.02,2.5,0,5,0,7.5,0,3.4-.01,6.8,0,10.2.02.97,0,1.94-.02,2.94-.03,11.04.12,20.16,3.91,28.14,11.53,11.19,11.72,11.59,24.2,11.52,39.53,0,1.96.01,3.93.02,5.89.02,5.31.01,10.62,0,15.92-.01,5.57,0,11.14,0,16.71,0,9.35,0,18.7-.02,28.05-.02,10.79-.01,21.58,0,32.38.02,9.29.02,18.57.01,27.86,0,5.54,0,11.07,0,16.61.01,5.21,0,10.41-.02,15.62,0,1.9,0,3.81,0,5.71.06,14.38-1.13,25.82-11.53,36.72-8.97,8.56-18.86,11.62-31.08,11.5-1.06,0-2.13.01-3.23.02-3.56.01-7.11,0-10.67-.01-2.58,0-5.16.01-7.74.02-5.6.01-11.21.01-16.81,0-8.33-.02-16.66,0-24.99,0-14.88.02-29.76.02-44.64,0-13.02-.01-26.05-.01-39.07,0-.86,0-1.73,0-2.62,0-3.51,0-7.02,0-10.52,0-32.9.01-65.8,0-98.7-.02-29.22-.02-58.45-.02-87.67,0-32.84.02-65.68.03-98.52.02-3.5,0-7,0-10.5,0-.86,0-1.72,0-2.61,0-13.01,0-26.03,0-39.04.01-14.8.01-29.6,0-44.4-.01-8.28-.01-16.56-.01-24.84,0-6.18.01-12.37,0-18.55-.02-2.5,0-5,0-7.5,0-3.4.01-6.8,0-10.2-.02-.97,0-1.94.02-2.94.03-11.04-.12-20.16-3.91-28.14-11.53C.36,240.83-.04,228.36.03,213.03c0-1.96-.01-3.93-.02-5.89-.02-5.31-.01-10.62,0-15.92.01-5.57,0-11.14,0-16.71,0-9.35,0-18.7.02-28.05.02-10.79.01-21.58,0-32.38C0,104.79,0,95.5.01,86.22c0-5.54,0-11.07,0-16.61-.01-5.21,0-10.41.02-15.62,0-1.9,0-3.81,0-5.71-.06-14.38,1.13-25.82,11.53-36.72C20.52,2.99,30.41-.07,42.63.05Z"></path>
  <path class="st1" d="M389.55.55c33.83-.09,67.65-.16,101.48-.2,4,0,7.99-.01,11.99-.02q1.19,0,2.41,0c12.87-.02,25.74-.05,38.61-.09,13.21-.04,26.43-.06,39.64-.07,8.15,0,16.3-.02,24.45-.06,5.59-.02,11.19-.03,16.78-.02,3.22,0,6.45,0,9.67-.02,3.5-.02,7.01-.02,10.51,0q1.51-.02,3.05-.04c11.17.09,20.32,3.8,28.41,11.52,11.19,11.72,11.59,24.2,11.52,39.53,0,1.96.01,3.93.02,5.89.02,5.31.01,10.62,0,15.92-.01,5.57,0,11.14,0,16.71,0,9.35,0,18.7-.02,28.05-.02,10.79-.01,21.58,0,32.38.02,9.29.02,18.57.01,27.86,0,5.54,0,11.07,0,16.61.01,5.21,0,10.41-.02,15.62,0,1.9,0,3.81,0,5.71.06,14.38-1.13,25.82-11.53,36.72-9.12,8.71-19.09,11.62-31.5,11.48q-1.66,0-3.34.01c-3.67,0-7.34-.02-11.01-.04-2.64,0-5.28,0-7.93,0-5.67,0-11.35-.01-17.02-.03-8.2-.03-16.4-.04-24.61-.05-13.31,0-26.62-.04-39.93-.07-12.92-.04-25.85-.07-38.77-.08-.8,0-1.6,0-2.42,0-4,0-8-.01-12.01-.02-33.16-.04-66.32-.11-99.48-.2,2.91-1.48,5.82-2.72,8.88-3.88,11.36-4.54,17.69-11.41,22.96-22.26,2.13-5.25,2.31-10.22,2.31-15.84,0-.8,0-1.59.01-2.41.01-2.67.01-5.33.02-8,0-1.91.01-3.83.02-5.74.02-6.28.03-12.57.04-18.85,0-2.17,0-4.33.01-6.5.02-10.18.03-20.35.04-30.53,0-11.73.04-23.47.08-35.2.03-9.08.04-18.16.05-27.23,0-5.42.01-10.84.04-16.25.02-5.1.03-10.2.02-15.3,0-1.87,0-3.73.02-5.6.09-13.57-.87-24.95-10.49-35.41-6.74-6.83-13.74-10.69-23-13V.55Z"></path>
  <path class="st5" d="M164.55,67.55c-.99,5.75-3.23,10.87-5.44,16.25-.41,1.02-.82,2.04-1.24,3.09q-.59,1.45-1.2,2.93c-.36.88-.72,1.77-1.09,2.68q-1.04,2.05-3.04,3.05c-1.97-.82-3.9-1.73-5.81-2.69-8.87-4.22-18.26-7.9-28.19-8.31-1.12-.05-2.24-.1-3.4-.16-10.1-.25-20.04.28-28.6,6.16-3.23,4.79-3.53,8.41-3,14,1.89,4.9,5.44,6.81,10,9q3.54,1.15,7.27,1.93c.67.16,1.35.31,2.04.47,1.43.33,2.86.66,4.29.98,3.72.84,7.43,1.72,11.14,2.61q1.09.26,2.19.52c17.34,4.18,36.34,9.55,46.43,25.43,5.46,9.89,6.42,21.35,3.5,32.31-4.48,12.71-12.78,21.66-24.45,28.14-26.18,12.27-57.68,9.84-84.33.23-6.47-2.47-12.34-5.79-18.09-9.62.98-5.87,3.48-10.88,5.94-16.25.46-1.02.91-2.04,1.38-3.09.44-.97.88-1.93,1.33-2.93.4-.88.8-1.77,1.22-2.68q1.13-2.05,3.13-3.05,1.96,1.04,4.38,2.62c17.65,10.9,39.37,14.84,59.79,11.14,5.18-1.39,8.92-4.02,12.84-7.57,1.52-3.32,1.67-6.65,1-10.19-1.96-4.21-3.81-5.83-8.06-7.62q-1.32-.58-2.66-1.16c-7.67-2.83-15.5-4.79-23.46-6.59-17.53-4.1-36.22-8.77-47.81-23.62-6.53-10.53-7.68-22.27-5.35-34.36,3.82-12.59,11.77-22.23,23.3-28.46,6.78-3.48,13.57-5.73,21.05-7.18.75-.17,1.5-.34,2.27-.52,22.77-4.01,51.16-.53,70.73,12.52Z"></path>
  <path class="st5" d="M192.55,47.55h35c.33,29.7.66,59.4,1,90q9.25-8.45,18.14-17.18c1.87-1.84,3.8-3.55,5.79-5.26,3.8-3.27,7.3-6.78,10.82-10.35,2.73-2.7,5.59-5.21,8.52-7.7q1.74-1.44,3.07-3.08c2.09-1.8,3.12-1.79,5.85-1.77q1.26,0,2.55,0c.9.02,1.81.03,2.74.05.93,0,1.86,0,2.81.01,2.97.02,5.93.05,8.89.09,2.01.02,4.02.03,6.03.04,4.93.03,9.86.08,14.78.15-4.65,5.59-9.62,10.74-14.79,15.86-.83.82-1.66,1.65-2.51,2.5-2.63,2.61-5.26,5.22-7.89,7.83-3.48,3.45-6.95,6.9-10.42,10.36-.8.79-1.59,1.58-2.41,2.39-.74.74-1.48,1.48-2.25,2.24-.65.65-1.3,1.29-1.97,1.95q-1.83,1.86-3.37,4.12c-.46.58-.92,1.16-1.39,1.76h-2c6.57,8.9,13.26,17.65,20.28,26.2,4.17,5.09,8.19,10.27,12.18,15.5,1.84,2.4,3.72,4.77,5.62,7.12.53.65,1.06,1.31,1.6,1.98,1.01,1.25,2.02,2.49,3.04,3.73,3.74,4.62,7.05,9.47,10.28,14.46-5.83.22-11.67.39-17.5.49-1.98.05-3.97.11-5.95.18q-16.41.63-21.49-2.48c-2.05-2.29-3.55-4.53-5.06-7.2-.94-1.2-1.89-2.39-2.87-3.55-.86-1.1-1.71-2.21-2.57-3.32-.94-1.21-1.88-2.42-2.83-3.63q-.69-.88-1.39-1.79c-2.68-3.4-5.44-6.74-8.19-10.08-3.42-4.18-6.79-8.4-10.15-12.62-6.72,3.06-12.88,7.11-16,14-1.84,9.92-1.18,19.95-1,30h-35V47.55Z"></path>
  <path class="st2" d="M459.55,57.55h116v28h-80v40h71v29h-71v56h-36V57.55Z"></path>
  <path class="st0" d="M336.55,92.55h35v118h-35v-118Z"></path>
  <path class="st3" d="M597.55,92.55h34v117h-34v-117Z"></path>
  <path class="st0" d="M364.29,38.43c4.94,2.53,9.27,5.82,11.26,11.12.96,6.85.64,13.06-3,19-5.16,5.28-10.95,8.04-18.38,8.44-6.17-.27-12.16-1.91-16.55-6.41-5.06-6.65-5.85-11.65-5.07-20.02,2.56-5.42,6.87-9.47,12.27-12.11,6.12-1.99,13.34-1.97,19.47-.01Z"></path>
  <path class="st6" d="M626.05,39.61c4.35,2.55,7.76,5.08,9.5,9.94.95,6.86.64,13.05-3,19-5.21,5.33-11.01,8.08-18.5,8.38-6.77-.26-12.68-2.55-17.5-7.38-3.83-5.07-4.65-9.01-4.38-15.36.86-6.09,3.67-9.3,8.44-13.02,7.38-5.3,17.27-5.31,25.44-1.56Z"></path>
</svg>