<svg id="Layer_1" xmlns="http://www.w3.org/2000/svg" version="1.1" viewBox="0 0 701.79 280.55">
  
  <defs>
    <style>
      .st0 {
        fill: #fcfcfd;
      }

      .st1 {
        fill: #fbfbfc;
      }

      .st2 {
        fill: #fefefe;
      }

      .st3 {
        fill: #001436;
      }

      .st4 {
        fill: #021537;
      }

      .st5 {
        fill: #fdfefe;
      }

      .st6 {
        fill: #fdfdfd;
      }
    </style>
  </defs>
  <path class="st3" d="M63.46.04c2.58,0,5.16-.01,7.74-.02,5.6-.01,11.2-.01,16.8,0,8.33.02,16.65,0,24.98,0,14.87-.02,29.75-.02,44.62,0,13.02.01,26.03.01,39.05,0,.86,0,1.73,0,2.62,0,3.51,0,7.01,0,10.52,0,32.89-.01,65.78,0,98.67.02,29.21.02,58.42.02,87.63,0C428.93,0,461.75,0,494.58.01c3.5,0,7,0,10.5,0,.86,0,1.72,0,2.61,0,13.01,0,26.02,0,39.02-.01,14.79-.01,29.59,0,44.38.01,8.28.01,16.55.01,24.83,0,6.18-.01,12.36,0,18.54.02,2.5,0,5,0,7.5,0,17.95-.06,32.37.81,46.43,13.33,8.64,9.12,13.29,21.12,13.24,33.58,0,.82,0,1.64.01,2.48.01,2.73.01,5.46,0,8.18,0,1.96.01,3.92.02,5.89.02,5.32.02,10.64.02,15.96,0,3.33,0,6.66.01,9.98.02,11.62.03,23.24.03,34.86,0,10.81.02,21.63.05,32.44.03,9.3.04,18.6.04,27.89,0,5.55,0,11.09.03,16.64.02,5.22.02,10.44,0,15.66,0,1.91,0,3.82.01,5.73.1,16.09-2.2,29.44-13.31,41.92-10.05,9.52-22.3,13.28-35.78,13.23-1.06,0-2.12,0-3.21.01-3.56,0-7.13,0-10.69,0-2.58,0-5.15,0-7.73.01-5.61.01-11.21.01-16.82.01-8.34,0-16.67,0-25.01.02-15.76.02-31.51.02-47.27.03-12.17,0-24.33,0-36.5.01-3.5,0-7,0-10.51,0-.87,0-1.74,0-2.64,0-24.49.01-48.98.02-73.47.02-.92,0-1.85,0-2.8,0-4.68,0-9.36,0-14.04,0-.93,0-1.86,0-2.82,0-1.88,0-3.76,0-5.64,0-29.24,0-58.49.01-87.73.04-32.85.03-65.71.05-98.56.05-3.5,0-7.01,0-10.51,0q-1.29,0-2.61,0c-13.88,0-27.76.01-41.64.03-13.95.02-27.9.02-41.85,0-8.29,0-16.57,0-24.86.02-6.19.01-12.38,0-18.57,0-2.5,0-5.01,0-7.51.01q-24.07.1-33.43-4.51c-1.1-.54-2.2-1.08-3.33-1.64-12.15-7.88-19.2-18.19-22.67-32.36-.18-2.83-.28-5.56-.27-8.39q0-1.23-.01-2.48c-.01-2.73-.01-5.46,0-8.18,0-1.96-.01-3.92-.02-5.89-.02-5.32-.02-10.64-.02-15.96,0-3.33,0-6.66-.01-9.98-.02-11.62-.03-23.24-.03-34.86,0-10.81-.02-21.63-.05-32.44-.03-9.3-.04-18.6-.04-27.89,0-5.55,0-11.09-.03-16.64-.02-5.22-.02-10.44,0-15.66,0-1.91,0-3.82-.01-5.73-.09-14.54,1.45-25.97,10.5-37.89.72-1.03,1.44-2.06,2.19-3.12C25.85-.82,45.1-.03,63.46.04Z"></path>
  <path class="st2" d="M63.46.04c2.58,0,5.16-.01,7.74-.02,5.6-.01,11.2-.01,16.8,0,8.33.02,16.65,0,24.98,0,14.87-.02,29.75-.02,44.62,0,13.02.01,26.03.01,39.05,0,.86,0,1.73,0,2.62,0,3.51,0,7.01,0,10.52,0,32.89-.01,65.78,0,98.67.02,29.21.02,58.42.02,87.63,0C428.93,0,461.75,0,494.58.01c3.5,0,7,0,10.5,0,.86,0,1.72,0,2.61,0,13.01,0,26.02,0,39.02-.01,14.79-.01,29.59,0,44.38.01,8.28.01,16.55.01,24.83,0,6.18-.01,12.36,0,18.54.02,2.5,0,5,0,7.5,0,17.95-.06,32.37.81,46.43,13.33,8.64,9.12,13.29,21.12,13.24,33.58,0,.82,0,1.64.01,2.48.01,2.73.01,5.46,0,8.18,0,1.96.01,3.92.02,5.89.02,5.32.02,10.64.02,15.96,0,3.33,0,6.66.01,9.98.02,11.62.03,23.24.03,34.86,0,10.81.02,21.63.05,32.44.03,9.3.04,18.6.04,27.89,0,5.55,0,11.09.03,16.64.02,5.22.02,10.44,0,15.66,0,1.91,0,3.82.01,5.73.1,16.09-2.2,29.44-13.31,41.92-10.05,9.52-22.3,13.28-35.78,13.23-1.06,0-2.12,0-3.21.01-3.56,0-7.13,0-10.69,0-2.58,0-5.15,0-7.73.01-5.61.01-11.21.01-16.82.01-8.34,0-16.67,0-25.01.02-15.76.02-31.51.02-47.27.03-12.17,0-24.33,0-36.5.01-3.5,0-7,0-10.51,0-.87,0-1.74,0-2.64,0-24.49.01-48.98.02-73.47.02-.92,0-1.85,0-2.8,0-4.68,0-9.36,0-14.04,0-.93,0-1.86,0-2.82,0-1.88,0-3.76,0-5.64,0-29.24,0-58.49.01-87.73.04-32.85.03-65.71.05-98.56.05-3.5,0-7.01,0-10.51,0q-1.29,0-2.61,0c-13.88,0-27.76.01-41.64.03-13.95.02-27.9.02-41.85,0-8.29,0-16.57,0-24.86.02-6.19.01-12.38,0-18.57,0-2.5,0-5.01,0-7.51.01q-24.07.1-33.43-4.51c-1.1-.54-2.2-1.08-3.33-1.64-12.15-7.88-19.2-18.19-22.67-32.36-.18-2.83-.28-5.56-.27-8.39q0-1.23-.01-2.48c-.01-2.73-.01-5.46,0-8.18,0-1.96-.01-3.92-.02-5.89-.02-5.32-.02-10.64-.02-15.96,0-3.33,0-6.66-.01-9.98-.02-11.62-.03-23.24-.03-34.86,0-10.81-.02-21.63-.05-32.44-.03-9.3-.04-18.6-.04-27.89,0-5.55,0-11.09-.03-16.64-.02-5.22-.02-10.44,0-15.66,0-1.91,0-3.82-.01-5.73-.09-14.54,1.45-25.97,10.5-37.89.72-1.03,1.44-2.06,2.19-3.12C25.85-.82,45.1-.03,63.46.04ZM14,25.43c-7.25,10.77-7.2,21.52-7.13,34.01,0,1.9,0,3.79-.02,5.69-.01,5.12,0,10.24.01,15.36.01,5.37,0,10.75,0,16.12,0,9.02.01,18.04.03,27.06.03,10.41.03,20.82.02,31.23-.01,10.04,0,20.08,0,30.12,0,4.26,0,8.52,0,12.78,0,5.02,0,10.05.03,15.07,0,1.84,0,3.67,0,5.51-.04,15.66,1.44,28.99,12.6,40.92,7.34,7.01,16.83,11.49,27.06,11.51,1.24,0,2.48.01,3.76.02,1.37,0,2.74,0,4.11,0,1.46,0,2.92,0,4.38.01,4.01.01,8.02.01,12.03,0,4.33,0,8.65.01,12.98.02,8.47.02,16.95.02,25.42.02,6.89,0,13.78,0,20.67.01,19.54.02,39.09.03,58.63.03q1.58,0,3.19,0c1.05,0,2.11,0,3.2,0,17.09,0,34.17.02,51.26.05,17.55.03,35.1.04,52.65.04,9.85,0,19.7,0,29.55.03,8.39.02,16.78.02,25.17,0,4.28,0,8.55,0,12.83.01,3.92.02,7.85.01,11.77,0,1.41,0,2.82,0,4.24.01,12.71.09,24.31-1.71,33.93-10.51.6-.5,1.21-1,1.83-1.52,6.45-5.76,10.85-13.93,12.17-22.48.1-2.66.15-5.3.15-7.97q0-1.2.01-2.41c.01-2.67.01-5.33.02-8,0-1.91.01-3.83.02-5.74.02-6.28.03-12.57.04-18.85,0-2.17,0-4.33.01-6.5.02-10.18.03-20.35.04-30.53,0-11.73.04-23.47.08-35.2.03-9.08.04-18.16.05-27.23,0-5.42.01-10.84.04-16.25.02-5.1.03-10.2.02-15.3,0-1.87,0-3.73.02-5.6.1-13.75-1.03-24.68-10.49-35.41-.52-.62-1.05-1.23-1.59-1.87-6.49-7.1-15.73-11.7-25.37-12.32-3.77-.08-7.54-.09-11.31-.09-1.47,0-2.93,0-4.4-.02-4.02-.01-8.04-.02-12.05-.02-4.34,0-8.67-.01-13.01-.03-9.48-.02-18.96-.03-28.44-.04-5.92,0-11.84,0-17.77-.02-16.41-.02-32.81-.04-49.22-.04q-1.57,0-3.18,0c-2.13,0-4.25,0-6.38,0-1.06,0-2.11,0-3.2,0-1.06,0-2.11,0-3.2,0-17.13,0-34.25-.03-51.38-.07-17.6-.04-35.19-.06-52.79-.06-9.87,0-19.75,0-29.62-.04-8.41-.02-16.82-.03-25.23-.02-4.29,0-8.57,0-12.86-.02-3.93-.02-7.86-.02-11.8,0-1.42,0-2.83,0-4.25-.02-16.99-.16-28.57,5.44-39.33,18.51Z"></path>
  <path class="st0" d="M171.37,74.55c-1.89,6.11-4.13,12.06-6.5,18-.3.77-.59,1.53-.9,2.32-.78,1.93-1.68,3.81-2.6,5.68-4.18,1.39-6.51-.43-10.25-2.25-14.94-6.81-33.51-9.89-49.69-5.5-4.94,1.85-8.13,4.35-11.06,8.75-.76,5.19-1,9.57,2.06,13.94,5.78,4.06,10.56,6.5,17.5,7.99q1.06.24,2.14.48c2.98.66,5.97,1.3,8.95,1.94,19.34,4.18,41.18,9.69,52.77,26.95,5.3,9.06,5.76,19.14,3.89,29.33-3.05,11.59-10.09,21.42-20.31,27.75-1.65.9-3.32,1.77-5,2.62-.66.37-1.32.73-2,1.11-19.76,10.03-45.06,9.04-66,3.89-1.05-.22-2.1-.43-3.18-.66-10.78-2.35-20.76-7.07-29.82-13.34-.33-.66-.66-1.32-1-2q.9-2.52,2.31-5.66.75-1.68,1.51-3.4t1.62-3.56c.53-1.18,1.06-2.37,1.6-3.59,1.31-2.93,2.63-5.86,3.96-8.79,4.02,0,6.73,1.84,10.19,3.69,10.44,5.4,21.92,10.04,33.81,10.31.65.02,1.29.05,1.96.07,11.56.41,22.66.67,32.04-7.07,2.55-4.18,2.81-8.22,2-13-7.17-10.09-22.61-12.3-33.96-14.76-16.51-3.58-36.3-7.96-47.04-22.24-6.77-11.66-9.16-22.41-5.81-35.81,4.32-13.74,12.51-22.05,24.81-29.19,27.95-13.79,65.48-8.36,92,6Z"></path>
  <path class="st6" d="M200.37,54.55h34c.33,30.03.66,60.06,1,91q7.42-7.43,15-15,4.31-3.81,6.11-5.33c3.3-2.92,6.34-6.11,9.44-9.25,2.69-2.65,5.47-5.13,8.37-7.55q2.06-1.75,3.48-3.55c3.1-3.58,5.32-5.74,10.16-6.11,1.7,0,3.4.04,5.09.11.9,0,1.8.02,2.73.03,2.85.04,5.7.13,8.56.22,1.94.04,3.89.07,5.83.1,4.75.08,9.49.2,14.23.34-1.52,3.57-3.62,5.86-6.36,8.58-.9.9-1.8,1.8-2.73,2.73-.98.97-1.97,1.95-2.95,2.92-1.01,1-2.01,2.01-3.02,3.01-2.64,2.63-5.29,5.26-7.94,7.89-2.7,2.68-5.4,5.37-8.1,8.06-5.29,5.27-10.59,10.54-15.9,15.8,1.59,4.25,3.51,7.06,6.5,10.5,4.03,4.7,7.86,9.51,11.61,14.44,3.17,4.15,6.42,8.24,9.7,12.31,4.45,5.53,8.81,11.11,13.12,16.75.53.69,1.06,1.39,1.61,2.1,3.23,4.24,6.36,8.55,9.45,12.9-5.78.32-11.55.56-17.34.71-1.96.06-3.93.15-5.89.27q-17.16.97-22.4-3.7c-2.91-3.16-5.13-6.63-7.38-10.29-.97-1.26-1.97-2.51-2.99-3.73-.77-1-1.53-1.99-2.32-3.02-6.39-8.23-13.04-16.24-19.69-24.25-6.71,3.29-12.82,6.97-16,14-1.84,9.92-1.18,19.95-1,30h-34V54.55Z"></path>
  <path class="st3" d="M466.37,64.55h116v28h-81v41h71v28h-71v56h-35V64.55Z"></path>
  <path class="st5" d="M344.37,99.55h34v118h-34v-118Z"></path>
  <path class="st3" d="M604.37,99.55h34v117h-34v-117Z"></path>
  <path class="st1" d="M375.3,48.05c3.89,2.83,5.55,5.94,7.07,10.5.73,6.76.21,12.49-4,18-6.38,5.82-12.07,6.29-20.54,6.21-5.71-.35-8.79-1.81-13.21-5.53-4.34-5.19-5.89-9.44-5.66-16.16.95-5.88,4.31-9.95,8.97-13.46,8.14-5.54,19.19-4.19,27.37.44Z"></path>
  <path class="st4" d="M635.37,48.55c3.85,3.19,6.06,7.11,7,12,.08,6.38-.74,11.03-5,16-6.18,5.56-10.52,6.41-18.74,6.24-6.39-.47-10.39-1.93-14.7-6.74-3.98-4.94-4.15-9.94-4.09-16.12.9-5.75,3.96-8.98,8.53-12.38,9.04-4.87,18.24-3.89,27,1Z"></path>
</svg>